<svg width="20" height="20" viewBox="0 0 20 20" fill="none" xmlns="http://www.w3.org/2000/svg">
<path fill-rule="evenodd" clip-rule="evenodd" d="M8 1C9.61776 1 10.5975 1.5711 11.1808 2.26047C11.779 2.96741 12 3.84657 12 4.5C12 7.02027 10.7206 8.63612 8.94488 9.88836C9.25815 10.0638 9.58518 10.2366 9.9241 10.409C11.6659 9.07041 13 7.25847 13 4.5C13 3.65343 12.721 2.53259 11.9442 1.61453C11.1525 0.678904 9.88224 0 8 0C6.11776 0 4.84749 0.678904 4.05581 1.61453C3.27899 2.53259 3 3.65343 3 4.5C3 8.82893 6.28557 10.8268 9.27639 12.3222C9.35716 12.3626 9.43766 12.4026 9.51786 12.4422C9.74218 12.5531 10.0137 12.4794 10.1525 12.2712C10.3205 12.0192 10.2274 11.6773 9.95586 11.5432C9.87822 11.5048 9.80078 11.4664 9.72361 11.4278C6.71443 9.9232 4 8.17107 4 4.5C4 3.84657 4.22101 2.96741 4.81919 2.26047C5.40251 1.5711 6.38224 1 8 1ZM14.4996 18.9992C14.776 18.9992 15 19.2232 15 19.4996C15 19.776 14.776 20 14.4996 20H0V17C0 15.508 0.910665 14.4707 2.0898 13.6518C2.98677 13.0289 4.11869 12.4797 5.25986 11.926L5.25989 11.926C5.49957 11.8097 5.73965 11.6932 5.97805 11.5758C6.29956 11.7998 6.62735 12.0089 6.95595 12.2053C6.87835 12.2446 6.80088 12.2836 6.72361 12.3222C6.35699 12.5055 5.9958 12.6809 5.64375 12.8518C4.51936 13.3978 3.48705 13.899 2.6602 14.4732C1.58934 15.2168 1 15.992 1 17V18.9992H14.4996ZM20 12C20 13.1046 19.1046 14 18 14C17.398 14 16.8582 13.7341 16.4915 13.3133L13.956 14.581C13.9848 14.7161 14 14.8563 14 15C14 15.1437 13.9848 15.2838 13.9561 15.4189L16.4916 16.6867C16.8582 16.2659 17.3981 16 18 16C19.1046 16 20 16.8954 20 18C20 19.1046 19.1046 20 18 20C16.8954 20 16 19.1046 16 18C16 17.8563 16.0152 17.716 16.044 17.5809L13.5085 16.3132C13.1419 16.734 12.602 17 12 17C10.8954 17 10 16.1046 10 15C10 13.8954 10.8954 13 12 13C12.602 13 13.1418 13.2659 13.5085 13.6868L16.044 12.419C16.0152 12.2839 16 12.1437 16 12C16 10.8954 16.8954 10 18 10C19.1046 10 20 10.8954 20 12ZM19 12C19 12.5523 18.5523 13 18 13C17.4477 13 17 12.5523 17 12C17 11.4477 17.4477 11 18 11C18.5523 11 19 11.4477 19 12ZM13 15C13 15.5523 12.5523 16 12 16C11.4477 16 11 15.5523 11 15C11 14.4477 11.4477 14 12 14C12.5523 14 13 14.4477 13 15ZM18 19C18.5523 19 19 18.5523 19 18C19 17.4477 18.5523 17 18 17C17.4477 17 17 17.4477 17 18C17 18.5523 17.4477 19 18 19Z" fill="black"/>
</svg>
