<svg width="20" height="20" viewBox="0 0 20 20" fill="none" xmlns="http://www.w3.org/2000/svg">
<path fill-rule="evenodd" clip-rule="evenodd" d="M8.02352 1.795C7.72652 1.903 7.44152 2.035 7.17052 2.188L7.14652 2.203C6.87652 2.357 6.62152 2.531 6.38552 2.722L5.22252 2.066C4.98652 1.933 4.68752 2.015 4.54852 2.246L3.06952 4.749C2.92952 4.987 3.00752 5.293 3.24452 5.433L4.40452 6.086L4.36452 6.354C4.33952 6.57 4.32552 6.787 4.32552 7.005C4.32552 7.221 4.33952 7.438 4.36452 7.654L4.40352 7.922L3.25452 8.57C3.01552 8.705 2.93052 9.009 3.06552 9.248L3.5247 10.0261C3.68248 10.0085 3.84136 10 4 10C4.23473 10 4.46999 10.0186 4.70143 10.0577L4.18752 9.188L5.18652 8.624C5.39152 8.523 5.50652 8.29 5.45052 8.059C5.41052 7.896 5.37952 7.721 5.35752 7.536C5.33752 7.365 5.32652 7.186 5.32652 7.005C5.32652 6.821 5.33752 6.643 5.35752 6.472C5.37952 6.287 5.41152 6.113 5.45052 5.949C5.50152 5.738 5.40952 5.509 5.21052 5.398L4.18752 4.82L5.15952 3.174L6.17052 3.744C6.35752 3.869 6.61252 3.855 6.78452 3.696C7.04552 3.455 7.33152 3.244 7.63652 3.069L7.66252 3.055C7.96352 2.885 8.28652 2.747 8.62352 2.646C8.85252 2.599 9.02452 2.397 9.02452 2.155V1H10.9825L10.9835 2.155C10.9835 2.371 11.1265 2.57 11.3435 2.634C11.6985 2.737 12.0345 2.88 12.3455 3.055C12.6605 3.233 12.9525 3.446 13.2145 3.687C13.3685 3.836 13.6085 3.873 13.8045 3.762L14.8475 3.174L15.8195 4.82L14.8195 5.385C14.6155 5.485 14.5005 5.718 14.5555 5.949C14.5955 6.113 14.6275 6.287 14.6495 6.472C14.6695 6.643 14.6805 6.821 14.6805 7.005C14.6805 7.186 14.6695 7.365 14.6495 7.536C14.6275 7.721 14.5955 7.896 14.5565 8.059C14.5055 8.27 14.5975 8.498 14.7965 8.61L15.8195 9.188L15.3064 10.0564C15.5353 10.0182 15.7679 10 16 10C16.1613 10 16.3228 10.0088 16.4831 10.027L16.9375 9.258C17.0775 9.021 16.9995 8.715 16.7615 8.574L15.6025 7.922L15.6415 7.653C15.6675 7.438 15.6805 7.221 15.6805 7.005C15.6805 6.787 15.6675 6.57 15.6415 6.354L15.6025 6.086L16.7525 5.437C16.9915 5.303 17.0765 4.999 16.9415 4.759L15.4585 2.246C15.3185 2.009 15.0115 1.931 14.7745 2.071L13.6205 2.723C13.3745 2.523 13.1125 2.344 12.8345 2.188C12.5635 2.035 12.2785 1.903 11.9825 1.795V0.5C11.9825 0.224 11.7585 0 11.4825 0H8.52452C8.24752 0 8.02352 0.224 8.02352 0.5V1.795ZM11.7847 9.42021C11.906 9.33069 12.0202 9.23229 12.1265 9.126C12.6695 8.583 13.0055 7.833 13.0055 7.004C13.0055 6.175 12.6695 5.424 12.1265 4.881C11.5835 4.338 10.8325 4.002 10.0035 4.002C9.17652 4.002 8.42552 4.338 7.88152 4.881C7.33752 5.424 7.00152 6.175 7.00152 7.004C7.00152 7.833 7.33752 8.583 7.88052 9.126L7.90952 9.152C8.0071 9.24723 8.11111 9.33589 8.22085 9.41725C8.73125 9.14627 9.30718 9.01669 9.88427 9.00152C9.39044 8.9726 8.94389 8.76525 8.61052 8.443L8.58852 8.419C8.22652 8.057 8.00252 7.556 8.00252 7.004C8.00252 6.451 8.22652 5.951 8.58752 5.588C8.94952 5.226 9.45052 5.003 10.0035 5.003C10.5565 5.003 11.0565 5.227 11.4185 5.589C11.7805 5.951 12.0055 6.451 12.0055 7.004C12.0055 7.556 11.7805 8.057 11.4185 8.419C11.0822 8.75531 10.6268 8.97251 10.1204 9.00165C10.6981 9.01746 11.2743 9.14795 11.7847 9.42021ZM9.54137 16.4171L10 16.198L10.4586 16.4171C10.861 16.6094 11.2428 16.7473 11.6165 16.8724C11.7348 16.912 11.8549 16.9512 11.9737 16.99L11.9766 16.9909C12.1302 17.0411 12.2835 17.0911 12.4434 17.1452C12.7574 17.2515 13 17.5727 13 17.9884V19.5C13 19.7761 13.2239 20 13.5 20C13.7761 20 14 19.7761 14 19.5V17.9884C14 17.1869 13.5233 16.4551 12.764 16.198C12.5982 16.1419 12.4389 16.0899 12.2859 16.04L12.2857 16.0399L12.285 16.0397L12.2846 16.0395C12.1649 16.0005 12.0483 15.9624 11.9341 15.9242C11.575 15.8039 11.2378 15.6811 10.8897 15.5148C11.155 15.3217 11.397 15.0523 11.6058 14.7392C12.0934 14.0078 12.4 13.0378 12.4 12.2436C12.4 10.7567 11.3255 10 10 10C8.67452 10 7.6 10.7567 7.6 12.2436C7.6 13.0378 7.90684 14.0077 8.39449 14.7391C8.60327 15.0522 8.84501 15.3217 9.11031 15.5148C8.7622 15.6811 8.42494 15.8039 8.06586 15.9242C7.95097 15.9627 7.83346 16.001 7.71302 16.0403L7.71298 16.0403C7.56012 16.0902 7.40168 16.1419 7.23596 16.198C6.47674 16.4551 6 17.1869 6 17.9884V19.5C6 19.7761 6.22386 20 6.5 20C6.77614 20 7 19.7761 7 19.5V17.9884C7 17.5727 7.24262 17.2515 7.55663 17.1452C7.7165 17.0911 7.86999 17.041 8.02362 16.9909L8.02502 16.9904C8.1443 16.9515 8.26473 16.9122 8.38346 16.8724C8.75716 16.7473 9.13897 16.6094 9.54137 16.4171ZM9.69882 14.7063L10 14.9255L10.3012 14.7063C10.4476 14.5998 10.6122 14.4266 10.7737 14.1844C11.1625 13.6013 11.4 12.822 11.4 12.2436C11.4 11.7607 11.2361 11.4873 11.0435 11.3211C10.8308 11.1374 10.4815 11 10 11C9.5185 11 9.1692 11.1374 8.95651 11.3211C8.76395 11.4873 8.6 11.7607 8.6 12.2436C8.6 12.822 8.83746 13.6013 9.22627 14.1844C9.38775 14.4266 9.55243 14.5998 9.69882 14.7063ZM20 19.5C20 19.7762 19.7761 20 19.5 20C19.2239 20 19 19.7762 19 19.5V18.9884C19 18.5727 18.7574 18.2515 18.4434 18.1452C18.2835 18.0911 18.1302 18.0411 17.9765 17.9909L17.9522 17.983C17.471 17.826 16.9773 17.6649 16.4586 17.4171L16 17.198L15.5414 17.4171C15.3517 17.5078 15.1653 17.5868 14.9817 17.6583C14.9442 17.322 14.8501 16.9947 14.7043 16.6927C14.8393 16.6384 14.9739 16.5799 15.1103 16.5148C14.845 16.3217 14.603 16.0523 14.3943 15.7392C13.9066 15.0079 13.6 14.0379 13.6 13.2436C13.6 11.7567 14.6745 11 16 11C17.3255 11 18.4 11.7567 18.4 13.2436C18.4 14.0379 18.0934 15.0079 17.6057 15.7392C17.397 16.0523 17.155 16.3217 16.8897 16.5148C17.2378 16.6811 17.575 16.8039 17.9341 16.9242C18.0485 16.9625 18.1653 17.0006 18.2852 17.0397L18.2859 17.04L18.2859 17.04C18.4389 17.0899 18.5982 17.1419 18.764 17.198C19.5233 17.4551 20 18.1869 20 18.9884V19.5ZM16 15.9255L16.3012 15.7063C16.5558 15.521 16.8403 15.1533 17.0642 14.6539C17.2847 14.1621 17.4 13.6447 17.4 13.2436C17.4 12.7607 17.2361 12.4873 17.0435 12.3211C16.8308 12.1374 16.4815 12 16 12C15.5185 12 15.1692 12.1374 14.9565 12.3211C14.7639 12.4873 14.6 12.7607 14.6 13.2436C14.6 13.6447 14.7153 14.1621 14.9358 14.6539C15.1597 15.1533 15.4442 15.521 15.6988 15.7063L16 15.9255ZM1 19.5V18.9884C1 18.5727 1.24262 18.2515 1.55663 18.1452C1.71654 18.0911 1.86982 18.0411 2.02348 17.9909L2.04774 17.983C2.529 17.826 3.02268 17.6649 3.54137 17.4171L4 17.198L4.45864 17.4171C4.64834 17.5078 4.8347 17.5868 5.01834 17.6583C5.05577 17.322 5.14994 16.9947 5.29574 16.6927C5.16075 16.6384 5.02606 16.5799 4.88969 16.5148C5.15499 16.3217 5.39695 16.0523 5.60573 15.7392C6.0934 15.0079 6.4 14.0379 6.4 13.2436C6.4 11.7567 5.32549 11 4 11C2.67452 11 1.6 11.7567 1.6 13.2436C1.6 14.0379 1.9066 15.0079 2.39427 15.7392C2.60305 16.0523 2.84501 16.3217 3.11031 16.5148C2.76219 16.6811 2.42495 16.8039 2.06586 16.9242C1.95116 16.9626 1.83384 17.0009 1.7136 17.0401L1.71317 17.0403L1.71302 17.0403L1.71299 17.0403C1.56013 17.0902 1.40169 17.1419 1.23596 17.198C0.476739 17.4551 0 18.1869 0 18.9884V19.5C0 19.7761 0.223858 20 0.5 20C0.776142 20 1 19.7761 1 19.5ZM4.30118 15.7063L4 15.9255L3.69882 15.7063C3.44423 15.521 3.15966 15.1533 2.93578 14.6539C2.71531 14.1621 2.6 13.6447 2.6 13.2436C2.6 12.7607 2.76395 12.4873 2.95651 12.3211C3.1692 12.1374 3.5185 12 4 12C4.4815 12 4.8308 12.1374 5.0435 12.3211C5.23606 12.4873 5.4 12.7607 5.4 13.2436C5.4 13.6447 5.28469 14.1621 5.06422 14.6539C4.84034 15.1533 4.55577 15.521 4.30118 15.7063Z" fill="black"/>
</svg>
