<svg width="19" height="16" viewBox="0 0 19 16" fill="none" xmlns="http://www.w3.org/2000/svg">
<path d="M4.44732 10.0025C4.46371 10.0008 4.48034 10 4.49716 10H6.4959C7.3238 10 7.99495 9.32843 7.99495 8.50001V6.70712L6.84923 7.85356C6.65409 8.04882 6.33771 8.04882 6.14257 7.85356C5.94743 7.6583 5.94743 7.34172 6.14257 7.14646L8.1413 5.14646C8.28421 5.00346 8.49914 4.96068 8.68586 5.03807C8.74469 5.06245 8.79707 5.09725 8.84122 5.13981L8.84799 5.14637L10.8467 7.14637C11.0419 7.34163 11.0419 7.65822 10.8467 7.85348C10.6516 8.04874 10.3352 8.04874 10.1401 7.85348L8.99432 6.70701V8.50001C8.99432 9.88072 7.87574 11 6.4959 11H4.49716C4.48638 11 4.47569 10.9997 4.46508 10.999H3.07206C2.22759 11.001 1.46208 10.6662 0.905428 10.1255C0.346781 9.58177 0 8.83018 0 8.00063C0 7.17108 0.346781 6.41949 0.905428 5.87479C1.46208 5.33509 2.22759 5.00027 3.07206 5.00027C3.39785 5.00027 3.71765 5.05224 4.02046 5.14819L4.1234 5.18317C4.20434 3.78893 4.81896 2.53362 5.77235 1.60712C6.79371 0.613665 8.20282 0 9.75584 0C10.8911 0 11.9505 0.32882 12.8389 0.894511C13.6604 1.41723 14.3339 2.14483 14.7827 3.00236L14.9006 2.99936C16.0279 2.99936 17.0512 3.44612 17.7938 4.16772C18.5383 4.89233 19 5.89378 19 7.00018C19 8.10557 18.5393 9.10703 17.7938 9.83163C17.0512 10.5542 16.0269 11 14.9006 11H14.5008L14.4958 11L14.4908 11H12.4921C11.6642 11 10.9931 11.6716 10.9931 12.5V14.2929L12.1388 13.1464C12.3339 12.9512 12.6503 12.9512 12.8454 13.1464C13.0406 13.3417 13.0406 13.6583 12.8454 13.8535L10.8467 15.8535C10.7038 15.9965 10.4889 16.0393 10.3022 15.9619C10.2396 15.936 10.1844 15.8984 10.1386 15.8521L8.1413 13.8536C7.94617 13.6583 7.94617 13.3417 8.1413 13.1465C8.33644 12.9512 8.65283 12.9512 8.84797 13.1465L9.99369 14.2929V12.5C9.99369 11.1193 11.1123 9.99999 12.4921 9.99999H14.4908C14.4987 9.99999 14.5066 10.0002 14.5144 10.0005H14.9006C15.76 10.0005 16.5376 9.66272 17.0982 9.11802C17.6558 8.57631 18.0006 7.82672 18.0006 7.00018C18.0006 6.17263 17.6558 5.42404 17.0982 4.88233C16.5376 4.33663 15.76 3.99981 14.9006 3.99981L14.7277 4.00281L14.5478 4.01781C14.4409 4.0268 14.327 4.00581 14.226 3.94285C14.1411 3.89187 14.0681 3.81492 14.0221 3.71897L14.0181 3.70697C13.6564 2.89942 13.0558 2.21279 12.3042 1.73405C11.5747 1.26931 10.6992 0.999454 9.75584 0.999454C8.46965 0.999454 7.30739 1.50518 6.46792 2.32173C5.63144 3.13429 5.11377 4.25867 5.11377 5.5L5.11677 5.70288L5.13276 5.91677C5.14275 6.0437 5.10977 6.15564 5.04581 6.25159L5.00284 6.30556C4.96886 6.34553 4.92889 6.38051 4.88292 6.4085C4.82895 6.44148 4.76999 6.46547 4.70403 6.47746L4.67005 6.48246C4.54613 6.49845 4.41621 6.47346 4.29629 6.38551C4.1214 6.26158 3.92652 6.16263 3.71965 6.09767C3.52078 6.0347 3.30291 5.99972 3.07206 5.99972C2.49542 5.99972 1.97575 6.2256 1.60099 6.5894C1.23022 6.9502 1.00037 7.44993 1.00037 8.00063C1.00037 8.55133 1.23022 9.05106 1.60099 9.41086C1.97575 9.77566 2.49542 10.0005 3.07206 10.0005L4.44732 10.0025Z" fill="black"/>
</svg>
