<svg width="20" height="20" viewBox="0 0 20 20" fill="none" xmlns="http://www.w3.org/2000/svg">
<path fill-rule="evenodd" clip-rule="evenodd" d="M19.8536 19.8536C20.0489 19.6583 20.0489 19.3417 19.8536 19.1465L15.4298 14.7225C14.7346 14.0273 13.6018 14.0844 12.7963 14.6483C11.5795 15.5002 10.0981 16 8.5 16C4.35786 16 0.999999 12.6421 1 8.5C1 4.35786 4.35786 1 8.5 1C12.6421 1 16 4.35786 16 8.5C16 9.91018 15.6108 11.2295 14.934 12.3563C14.809 12.5643 14.8329 12.8328 15.0045 13.0044C15.2257 13.2256 15.5935 13.1953 15.7566 12.9285C16.5454 11.6388 17 10.1225 17 8.5C17 3.80558 13.1944 0 8.5 0C3.80558 0 0 3.80558 0 8.5C0 13.1944 3.80558 17 8.5 17C10.3285 17 12.0222 16.4226 13.4086 15.4403C13.8407 15.1341 14.439 15.1461 14.8134 15.5205L19.1465 19.8536C19.3417 20.0489 19.6583 20.0489 19.8536 19.8536ZM7.88996 9.43525L8.5 9.1762L9.11004 9.43525C9.69664 9.68434 10.324 9.86567 10.88 10.0264L10.88 10.0264C11.0333 10.0707 11.1812 10.1134 11.3214 10.1556C11.774 10.2918 12 10.6498 12 10.9884V11.9647C11.9801 11.9795 11.9386 12 11.875 12H5.125C5.06142 12 5.01992 11.9795 5 11.9647V10.9884C5 10.6498 5.22602 10.2918 5.67862 10.1556C5.81865 10.1135 5.96646 10.0707 6.1197 10.0265L6.11999 10.0264C6.67594 9.86568 7.30334 9.68435 7.88996 9.43525ZM8.7883 7.81323L8.5 8.10606L8.2117 7.81322C7.38296 6.97146 7 6.03436 7 5C7 4.69351 7.40842 4 8.5 4C9.59158 4 10 4.69351 10 5C10 6.03436 9.61704 6.97147 8.7883 7.81323ZM11 5C11 5.9799 10.7228 6.88668 10.1686 7.7049C9.97861 7.98549 9.75603 8.25566 9.5009 8.5148C9.83514 8.65673 10.1786 8.77257 10.5252 8.87889C10.7235 8.9397 10.9228 8.9974 11.1221 9.05507C11.2848 9.10217 11.4475 9.14926 11.6095 9.19802C12.4637 9.45506 13 10.1869 13 10.9884V12C13 12.5523 12.4963 13 11.875 13H5.125C4.50368 13 4 12.5523 4 12V10.9884C4 10.1869 4.53633 9.45506 5.39045 9.19802C5.55248 9.14926 5.71516 9.10218 5.87788 9.05508C6.07715 8.9974 6.27648 8.93971 6.47476 8.87889C6.82143 8.77257 7.16486 8.65673 7.4991 8.5148C7.24397 8.25566 7.02139 7.98549 6.83137 7.7049C6.27725 6.88668 6 5.9799 6 5C6 4 7.00883 3 8.5 3C9.99117 3 11 4 11 5Z" fill="black"/>
</svg>
