<?xml version="1.0" encoding="UTF-8"?> <svg xmlns="http://www.w3.org/2000/svg" id="icon" viewBox="0 0 1000 1000"><title>icon_B_0047</title><path d="M980,471V60H943.38L693.22,319.26H599.85c-62.61,0-105.29,12.72-142.71,42.54l-45.53,38.61H351.53L56.49,100H20V554l138.56,84.65c15.72,36.94,39.7,92.38,69.62,131.76,1.52,24.92,10.34,46.1,25.78,61.57,11.66,11.7,26.78,19.55,43.74,23,4.94,10.76,13.45,20.1,24.72,27.35,17.79,11.44,39.41,16.1,66,12,21.13,22.17,53.23,24.94,65.53,24.94a100.32,100.32,0,0,0,29.11-4.17c18.44,15.37,49.19,16.76,57.12,16.76,22.19,0,44-6.14,59.52-17.36,2.45-1.69,15.93-11.11,35-26,3.9,3.16,17.66,14.46,17.66,14.46,21.6,16.86,59,21.35,84.65-9a57.8,57.8,0,0,0,13.22-33.54,60,60,0,0,0,51.54-55.24,60,60,0,0,0,51.56-63.8,60.14,60.14,0,0,0,21-104.58l-20.05-16.21C871.7,589.36,885,563.63,890,553.82ZM70,526V185.11l260.56,265.3h110.8c56.88,0,98.61,5,128.38,29.31l55.72,142.74a44.82,44.82,0,0,1-20.24,3.46c-9.5-.5-27.47-4.33-41-24.3l-55.57-80.27-65.3.53L264.2,735.08c-28.57-39-65.9-130.73-65.9-130.73ZM569.5,875.23c-13.3,9.09-31.26,12.08-39.89,5.88l96.27-94.54-30.29-32.4L473.34,865.42c-10,8.26-32.42,8.7-38.62.66L547.63,753.64l-30.75-32.95L385.65,843.6c-11.46,8.79-32.75,6.13-38.71-5.05L467.08,719.46l-30.6-32.09L306.79,807.67c-11.53.16-22-7.15-24.33-16.59L466.83,571.69l15.8-.13,40.28,58.19c18.73,27.61,47.75,44.41,79.66,46.1,28.51,1.51,62-10.79,81.64-40.39L612,450.35C577.26,416.1,535.47,405.62,487,401.93,511,384,537.75,369.26,599.85,369.26H714.46L930,145.88V449l-80.49,74.12S832,557.7,809.42,598.33a60.14,60.14,0,0,0-51.16,22.16h0a59.9,59.9,0,0,0-12.21,26.14c-17.93.09-35,6.74-47.74,22.34a60,60,0,0,0-10.52,56,60.15,60.15,0,0,0-20.11,16.13c-10.1,12.51-15.15,28.49-12.72,46.64a60.11,60.11,0,0,0-39.5,52.68C592.34,859.37,574.92,871.52,569.5,875.23ZM702,865.78A15.33,15.33,0,0,1,680.6,868l-15.82-12.68c-6.52-5.27-7.22-14.61-2.27-21.37s15.23-7,21.37-2.26l15.82,12.68C705.51,849.23,707.5,859.21,702,865.78Zm51.57-55.25a15.21,15.21,0,0,1-21.36,2.27L703.79,790c-3.16-2.55-9.26-12.22-2.27-21.37s18.63-4.47,21.35-2.27l28.41,22.85A15.21,15.21,0,0,1,753.54,810.53Zm51.57-55.25a15.21,15.21,0,0,1-21.36,2.27l-49.33-39.76c-6.52-5.27-7.25-14.63-2.27-21.37,5.28-7.14,15.76-6.14,21.36-2.27l49.33,39.76A15.21,15.21,0,0,1,805.11,755.28Zm43.2-62A15.22,15.22,0,0,1,827,695.54l-32.59-26.23a15.19,15.19,0,1,1,19.1-23.63L846,671.9A15.21,15.21,0,0,1,848.31,693.26Z"></path></svg> 