<svg width="21" height="19" viewBox="0 0 21 19" fill="none" xmlns="http://www.w3.org/2000/svg">
<path d="M16.5 16C16.7761 16 17 15.7761 17 15.5C17 15.2239 16.7761 15 16.5 15C16.2239 15 16 15.2239 16 15.5C16 15.7761 16.2239 16 16.5 16Z" fill="black"/>
<path fill-rule="evenodd" clip-rule="evenodd" d="M0.5 0H17.513C17.789 0 18.013 0.223999 18.013 0.5V6.00299H19.513C19.789 6.00299 20.013 6.22699 20.013 6.50299V17.509C20.013 17.785 19.789 18.009 19.513 18.009H13.51C13.234 18.009 13.009 17.785 13.009 17.509V14.008H11.008V15.008H11.506C11.782 15.008 12.007 15.233 12.007 15.509C12.007 15.785 11.782 16.009 11.506 16.009H6.508C6.23199 16.009 6.00702 15.785 6.00702 15.509C6.00702 15.233 6.23199 15.008 6.508 15.008H7.00598V14.008H0.5C0.223999 14.008 0 13.784 0 13.508V0.5C0 0.223999 0.223999 0 0.5 0ZM14.01 17.009H19.013V15.008H19V14.008H19.013V7.00403H14.01V13H14V16H14.01V17.009ZM1.00098 13.007H13.01V12.006H1.00098V13.007ZM1.00098 11.006H13.009V6.50299C13.009 6.22699 13.234 6.00299 13.51 6.00299H17.012V1.00098H1.00098V11.006ZM8.00598 15.008H10.007V14.008H8.00598V15.008Z" fill="black"/>
</svg>
